<svg xmlns="http://www.w3.org/2000/svg" viewBox="0 0 520 80" font-family="Segoe UI,Arial,sans-serif">
  <defs><marker id="a" markerWidth="8" markerHeight="6" refX="8" refY="3" orient="auto"><polygon points="0 0,8 3,0 6" fill="#0078D4"/></marker></defs>
  <rect x="2" y="20" width="100" height="40" rx="6" fill="#E8F4FD" stroke="#0078D4" stroke-width="1.5"/>
  <text x="52" y="44" text-anchor="middle" font-size="11" font-weight="bold" fill="#0078D4">Tekst/Obraz</text>
  <line x1="107" y1="40" x2="148" y2="40" stroke="#0078D4" stroke-width="1.5" marker-end="url(#a)"/>
  <text x="128" y="33" text-anchor="middle" font-size="8" fill="#555">REST/SDK</text>
  <rect x="153" y="10" width="130" height="60" rx="8" fill="#0078D4"/>
  <text x="218" y="28" text-anchor="middle" font-size="10" font-weight="bold" fill="#fff">Content Safety</text>
  <text x="218" y="43" text-anchor="middle" font-size="8" fill="#FFD54F">Hate | Violence</text>
  <text x="218" y="55" text-anchor="middle" font-size="8" fill="#FFD54F">Sexual | Self-harm</text>
  <text x="218" y="66" text-anchor="middle" font-size="7" fill="#B8D8F8">Severity: Safe...High</text>
  <line x1="288" y1="30" x2="328" y2="25" stroke="#107C10" stroke-width="1.5" marker-end="url(#a)"/>
  <line x1="288" y1="50" x2="328" y2="55" stroke="#C62828" stroke-width="1.5" marker-end="url(#a)"/>
  <rect x="333" y="5" width="90" height="30" rx="6" fill="#E6F7E6" stroke="#107C10" stroke-width="1.5"/>
  <text x="378" y="24" text-anchor="middle" font-size="9" font-weight="bold" fill="#107C10">Dozwolone</text>
  <rect x="333" y="45" width="90" height="30" rx="6" fill="#FCE4EC" stroke="#C62828" stroke-width="1.5"/>
  <text x="378" y="64" text-anchor="middle" font-size="9" font-weight="bold" fill="#C62828">Zablokowane</text>
  <rect x="440" y="20" width="75" height="40" rx="6" fill="#FFF4E6" stroke="#FF8C00" stroke-width="1.5"/>
  <text x="477" y="38" text-anchor="middle" font-size="7" font-weight="bold" fill="#FF8C00">Wbudowane</text>
  <text x="477" y="50" text-anchor="middle" font-size="7" font-weight="bold" fill="#FF8C00">w OpenAI</text>
</svg>