<svg xmlns="http://www.w3.org/2000/svg" viewBox="0 0 480 200" font-family="Segoe UI, sans-serif">
  <!-- Background -->
  <rect width="480" height="200" fill="#FAFCFF" rx="8"/>
  <!-- Title -->
  <text x="240" y="20" text-anchor="middle" fill="#0078D4" font-size="14" font-weight="bold">Anomaly Detection</text>
  <!-- Grid -->
  <line x1="60" y1="35" x2="60" y2="175" stroke="#E0E0E0" stroke-width="0.5"/>
  <line x1="110" y1="35" x2="110" y2="175" stroke="#E0E0E0" stroke-width="0.5"/>
  <line x1="160" y1="35" x2="160" y2="175" stroke="#E0E0E0" stroke-width="0.5"/>
  <line x1="210" y1="35" x2="210" y2="175" stroke="#E0E0E0" stroke-width="0.5"/>
  <line x1="260" y1="35" x2="260" y2="175" stroke="#E0E0E0" stroke-width="0.5"/>
  <line x1="40" y1="55" x2="270" y2="55" stroke="#E0E0E0" stroke-width="0.5"/>
  <line x1="40" y1="85" x2="270" y2="85" stroke="#E0E0E0" stroke-width="0.5"/>
  <line x1="40" y1="115" x2="270" y2="115" stroke="#E0E0E0" stroke-width="0.5"/>
  <line x1="40" y1="145" x2="270" y2="145" stroke="#E0E0E0" stroke-width="0.5"/>
  <!-- Axes -->
  <line x1="40" y1="175" x2="275" y2="175" stroke="#333" stroke-width="1.5"/>
  <line x1="40" y1="175" x2="40" y2="30" stroke="#333" stroke-width="1.5"/>
  <polygon points="275,175 268,171 268,179" fill="#333"/>
  <polygon points="40,30 36,37 44,37" fill="#333"/>
  <text x="160" y="195" text-anchor="middle" fill="#333" font-size="11" font-weight="bold">Cecha X₁</text>
  <text x="15" y="100" text-anchor="middle" fill="#333" font-size="11" font-weight="bold" transform="rotate(-90,15,100)">Cecha X₂</text>
  <!-- Normal data cluster (dense, blue) -->
  <ellipse cx="155" cy="110" rx="65" ry="45" fill="#4A90D9" opacity="0.06" stroke="#4A90D9" stroke-width="1.5" stroke-dasharray="5,3"/>
  <circle cx="130" cy="100" r="4" fill="#4A90D9" opacity="0.7"/>
  <circle cx="145" cy="95" r="4" fill="#4A90D9" opacity="0.7"/>
  <circle cx="160" cy="105" r="4" fill="#4A90D9" opacity="0.7"/>
  <circle cx="140" cy="115" r="4" fill="#4A90D9" opacity="0.7"/>
  <circle cx="155" cy="118" r="4" fill="#4A90D9" opacity="0.7"/>
  <circle cx="170" cy="112" r="4" fill="#4A90D9" opacity="0.7"/>
  <circle cx="148" cy="108" r="4" fill="#4A90D9" opacity="0.7"/>
  <circle cx="165" cy="98" r="4" fill="#4A90D9" opacity="0.7"/>
  <circle cx="135" cy="120" r="4" fill="#4A90D9" opacity="0.7"/>
  <circle cx="175" cy="102" r="4" fill="#4A90D9" opacity="0.7"/>
  <circle cx="152" cy="125" r="4" fill="#4A90D9" opacity="0.7"/>
  <circle cx="125" cy="108" r="4" fill="#4A90D9" opacity="0.7"/>
  <circle cx="168" cy="120" r="4" fill="#4A90D9" opacity="0.7"/>
  <circle cx="142" cy="128" r="4" fill="#4A90D9" opacity="0.7"/>
  <circle cx="180" cy="115" r="4" fill="#4A90D9" opacity="0.7"/>
  <circle cx="120" cy="115" r="4" fill="#4A90D9" opacity="0.7"/>
  <circle cx="158" cy="90" r="4" fill="#4A90D9" opacity="0.7"/>
  <circle cx="185" cy="108" r="4" fill="#4A90D9" opacity="0.7"/>
  <circle cx="110" cy="105" r="4" fill="#4A90D9" opacity="0.7"/>
  <circle cx="195" cy="118" r="4" fill="#4A90D9" opacity="0.7"/>
  <!-- "Normal" label -->
  <text x="155" y="148" text-anchor="middle" fill="#2563EB" font-size="9" font-weight="bold">Normalne dane</text>
  <!-- Anomalies (red, scattered far) -->
  <circle cx="60" cy="45" r="6" fill="none" stroke="#DC3545" stroke-width="2.5"/>
  <circle cx="60" cy="45" r="2.5" fill="#DC3545"/>
  <circle cx="250" cy="50" r="6" fill="none" stroke="#DC3545" stroke-width="2.5"/>
  <circle cx="250" cy="50" r="2.5" fill="#DC3545"/>
  <circle cx="80" cy="165" r="6" fill="none" stroke="#DC3545" stroke-width="2.5"/>
  <circle cx="80" cy="165" r="2.5" fill="#DC3545"/>
  <circle cx="245" cy="160" r="6" fill="none" stroke="#DC3545" stroke-width="2.5"/>
  <circle cx="245" cy="160" r="2.5" fill="#DC3545"/>
  <circle cx="55" cy="120" r="6" fill="none" stroke="#DC3545" stroke-width="2.5"/>
  <circle cx="55" cy="120" r="2.5" fill="#DC3545"/>
  <!-- Anomaly labels -->
  <text x="60" y="38" text-anchor="middle" fill="#DC3545" font-size="8" font-weight="bold">anomalia</text>
  <text x="250" y="43" text-anchor="middle" fill="#DC3545" font-size="8" font-weight="bold">anomalia</text>
  <!-- Legend -->
  <rect x="295" y="35" width="170" height="145" rx="6" fill="#fff" stroke="#E0E0E0" stroke-width="1"/>
  <text x="305" y="53" fill="#333" font-size="11" font-weight="bold">Wykrywanie anomalii</text>
  <text x="305" y="67" fill="#555" font-size="9">Punkty daleko od normy = anomalia</text>
  <circle cx="310" cy="85" r="4" fill="#4A90D9"/>
  <text x="320" y="89" fill="#333" font-size="10">Normalne obserwacje</text>
  <circle cx="310" cy="105" r="5" fill="none" stroke="#DC3545" stroke-width="2"/>
  <text x="320" y="109" fill="#333" font-size="10">Anomalie (outliery)</text>
  <ellipse cx="310" cy="123" rx="8" ry="5" fill="none" stroke="#4A90D9" stroke-width="1" stroke-dasharray="3,2"/>
  <text x="322" y="127" fill="#333" font-size="10">Granica normy</text>
  <text x="305" y="148" fill="#555" font-size="9" font-weight="bold">Metody: One-class SVM</text>
  <text x="305" y="161" fill="#555" font-size="9" font-weight="bold">Isolation Forest | Autoencoder</text>
  <text x="305" y="174" fill="#555" font-size="9" font-weight="bold">Z-score | IQR</text>
</svg>