<svg xmlns="http://www.w3.org/2000/svg" viewBox="0 0 480 200" font-family="Segoe UI, sans-serif">
  <!-- Background -->
  <rect width="480" height="200" fill="#FAFCFF" rx="8"/>
  <!-- Title -->
  <text x="240" y="20" text-anchor="middle" fill="#0078D4" font-size="14" font-weight="bold">Clustering (K-Means)</text>
  <!-- Grid -->
  <line x1="60" y1="35" x2="60" y2="175" stroke="#E0E0E0" stroke-width="0.5"/>
  <line x1="110" y1="35" x2="110" y2="175" stroke="#E0E0E0" stroke-width="0.5"/>
  <line x1="160" y1="35" x2="160" y2="175" stroke="#E0E0E0" stroke-width="0.5"/>
  <line x1="210" y1="35" x2="210" y2="175" stroke="#E0E0E0" stroke-width="0.5"/>
  <line x1="260" y1="35" x2="260" y2="175" stroke="#E0E0E0" stroke-width="0.5"/>
  <line x1="40" y1="55" x2="270" y2="55" stroke="#E0E0E0" stroke-width="0.5"/>
  <line x1="40" y1="85" x2="270" y2="85" stroke="#E0E0E0" stroke-width="0.5"/>
  <line x1="40" y1="115" x2="270" y2="115" stroke="#E0E0E0" stroke-width="0.5"/>
  <line x1="40" y1="145" x2="270" y2="145" stroke="#E0E0E0" stroke-width="0.5"/>
  <!-- Axes -->
  <line x1="40" y1="175" x2="275" y2="175" stroke="#333" stroke-width="1.5"/>
  <line x1="40" y1="175" x2="40" y2="30" stroke="#333" stroke-width="1.5"/>
  <polygon points="275,175 268,171 268,179" fill="#333"/>
  <polygon points="40,30 36,37 44,37" fill="#333"/>
  <text x="160" y="195" text-anchor="middle" fill="#333" font-size="11" font-weight="bold">Cecha X₁</text>
  <text x="15" y="100" text-anchor="middle" fill="#333" font-size="11" font-weight="bold" transform="rotate(-90,15,100)">Cecha X₂</text>
  <!-- Cluster 1 (blue) - top left -->
  <circle cx="70" cy="55" r="18" fill="#4A90D9" opacity="0.08" stroke="#4A90D9" stroke-width="1" stroke-dasharray="3,2"/>
  <circle cx="60" cy="50" r="4" fill="#4A90D9" opacity="0.8"/>
  <circle cx="72" cy="45" r="4" fill="#4A90D9" opacity="0.8"/>
  <circle cx="65" cy="60" r="4" fill="#4A90D9" opacity="0.8"/>
  <circle cx="80" cy="55" r="4" fill="#4A90D9" opacity="0.8"/>
  <circle cx="75" cy="65" r="4" fill="#4A90D9" opacity="0.8"/>
  <circle cx="56" cy="68" r="4" fill="#4A90D9" opacity="0.8"/>
  <circle cx="85" cy="48" r="4" fill="#4A90D9" opacity="0.8"/>
  <!-- Centroid 1 -->
  <rect x="66" y="53" width="8" height="8" fill="#1E40AF" transform="rotate(45,70,57)"/>
  <!-- Cluster 2 (orange) - bottom center -->
  <circle cx="150" cy="145" r="22" fill="#F59E0B" opacity="0.08" stroke="#F59E0B" stroke-width="1" stroke-dasharray="3,2"/>
  <circle cx="135" cy="140" r="4" fill="#F59E0B" opacity="0.8"/>
  <circle cx="148" cy="132" r="4" fill="#F59E0B" opacity="0.8"/>
  <circle cx="160" cy="145" r="4" fill="#F59E0B" opacity="0.8"/>
  <circle cx="142" cy="155" r="4" fill="#F59E0B" opacity="0.8"/>
  <circle cx="155" cy="152" r="4" fill="#F59E0B" opacity="0.8"/>
  <circle cx="165" cy="138" r="4" fill="#F59E0B" opacity="0.8"/>
  <circle cx="130" cy="150" r="4" fill="#F59E0B" opacity="0.8"/>
  <circle cx="158" cy="158" r="4" fill="#F59E0B" opacity="0.8"/>
  <!-- Centroid 2 -->
  <rect x="146" y="143" width="8" height="8" fill="#92400E" transform="rotate(45,150,147)"/>
  <!-- Cluster 3 (green) - right middle -->
  <circle cx="235" cy="85" r="20" fill="#28A745" opacity="0.08" stroke="#28A745" stroke-width="1" stroke-dasharray="3,2"/>
  <circle cx="225" cy="78" r="4" fill="#28A745" opacity="0.8"/>
  <circle cx="240" cy="72" r="4" fill="#28A745" opacity="0.8"/>
  <circle cx="248" cy="85" r="4" fill="#28A745" opacity="0.8"/>
  <circle cx="230" cy="92" r="4" fill="#28A745" opacity="0.8"/>
  <circle cx="245" cy="95" r="4" fill="#28A745" opacity="0.8"/>
  <circle cx="220" cy="88" r="4" fill="#28A745" opacity="0.8"/>
  <circle cx="252" cy="75" r="4" fill="#28A745" opacity="0.8"/>
  <circle cx="238" cy="98" r="4" fill="#28A745" opacity="0.8"/>
  <!-- Centroid 3 -->
  <rect x="231" y="81" width="8" height="8" fill="#155724" transform="rotate(45,235,85)"/>
  <!-- Legend -->
  <rect x="295" y="35" width="170" height="145" rx="6" fill="#fff" stroke="#E0E0E0" stroke-width="1"/>
  <text x="305" y="53" fill="#333" font-size="11" font-weight="bold">Uczenie nienadzorowane</text>
  <text x="305" y="67" fill="#555" font-size="9">Brak etykiet — model sam grupuje</text>
  <circle cx="310" cy="85" r="4" fill="#4A90D9"/>
  <text x="320" y="89" fill="#333" font-size="10">Klaster 1</text>
  <circle cx="310" cy="101" r="4" fill="#F59E0B"/>
  <text x="320" y="105" fill="#333" font-size="10">Klaster 2</text>
  <circle cx="310" cy="117" r="4" fill="#28A745"/>
  <text x="320" y="121" fill="#333" font-size="10">Klaster 3</text>
  <rect x="306" y="131" width="8" height="8" fill="#333" transform="rotate(45,310,135)"/>
  <text x="320" y="139" fill="#333" font-size="10">Centroid (środek)</text>
  <text x="305" y="160" fill="#555" font-size="9" font-weight="bold">Metryki: Silhouette Score</text>
  <text x="305" y="173" fill="#555" font-size="9" font-weight="bold">Inertia (SSE) | Elbow Method</text>
</svg>